# xmcd
#
# Track frame offsets:
#	150
#	12545
#	25596
#	36994
#	50239
#	59536
#	71204
#	83877
#	96364
#	108821
#	121120
#	134509
#	147385
#	157424
#	167405
#	179779
#	190704
#	203977
#	214528
#	227082
#
# Disc length: 3178 seconds
#
# Revision: 1
# Processed by: cddbd v1.5.2PL0 Copyright (c) Steve Scherf et al.
# Submitted via: audiograbber 1.83.01
#
DISCID=2d0c6814
DTITLE=verschiedene - Country CD 1
DYEAR=1900
DGENRE=
TTITLE0=Hank Williams - Move It On Over
TTITLE1=Bill Haley - Yodel Your Blues Away
TTITLE2=Frankie Laine - Mule Train
TTITLE3=Vaughn Monroe - Riders In The Sky
TTITLE4=Hank Snow - I´m Moving On
TTITLE5=Tennessee Ernie Ford - Shotgun Boogie
TTITLE6=Hank Williams - Pan American
TTITLE7=Red Foley - Chattanooga Shoe Shine Boy
TTITLE8=Hardrock Gunter - Birmingham Bounce
TTITLE9=Ernest Tubb and Red Foley - Hillbilly Fever
TTITLE10=Hank Williams - Hey Good Lookin´
TTITLE11=Hank Snow - The Rhumba Boogie
TTITLE12=Eddy Arnold - I Wanna Play House With You
TTITLE13=Tennessee Ernie Ford - Rock City Boogie
TTITLE14=Hank Thompson - The Wild Side Of Life
TTITLE15=Carl Smith - Don´t Stand Just There
TTITLE16=Hank Williams - Jambalaya
TTITLE17=Hank Snow - The Gold Rush Is Over
TTITLE18=Skeets McDonald - Don´t Let the Stars Get In Your Eyes
TTITLE19=Tennessee Ernie Ford - Blackberry Boogie
EXTD=
EXTT0=
EXTT1=
EXTT2=
EXTT3=
EXTT4=
EXTT5=
EXTT6=
EXTT7=
EXTT8=
EXTT9=
EXTT10=
EXTT11=
EXTT12=
EXTT13=
EXTT14=
EXTT15=
EXTT16=
EXTT17=
EXTT18=
EXTT19=
PLAYORDER=
